<?xml version="1.0" standalone="no"?><!DOCTYPE svg PUBLIC "-//W3C//DTD SVG 1.1//EN" "http://www.w3.org/Graphics/SVG/1.1/DTD/svg11.dtd"><svg class="icon" width="200px" height="200.00px" viewBox="0 0 1024 1024" version="1.1" xmlns="http://www.w3.org/2000/svg"><path fill="#333333" d="M810.666667 422.336H308.8c8.618667-64.085333-53.973333-324.693333 177.216-331.029333 219.84-7.36 185.621333 237.781333 185.621333 237.781333l107.669334 0.64S810.602667 1.6 486.016 0C131.797333 15.850667 214.912 371.562667 204.117333 422.336H213.333333c-70.677333 0-128 50.538667-128 112.810667v376.042666C85.333333 973.482667 142.677333 1024 213.333333 1024h597.333334c70.677333 0 128-50.538667 128-112.810667V535.146667c0-62.272-57.344-112.810667-128-112.810667zM554.666667 750.357333v85.653334c0 20.693333-19.178667 37.589333-42.666667 37.589333s-42.666667-16.896-42.666667-37.589333v-85.653334c-25.386667-13.034667-42.645333-37.034667-42.645333-64.789333 0-41.536 38.186667-75.2 85.333333-75.2s85.333333 33.664 85.333334 75.2c0 27.754667-17.28 51.754667-42.688 64.789333z" /></svg>