<?xml version="1.0" standalone="no"?><!DOCTYPE svg PUBLIC "-//W3C//DTD SVG 1.1//EN" "http://www.w3.org/Graphics/SVG/1.1/DTD/svg11.dtd"><svg t="1581591185859" class="icon" viewBox="0 0 1397 1024" version="1.1" xmlns="http://www.w3.org/2000/svg" p-id="6822" xmlns:xlink="http://www.w3.org/1999/xlink" width="65.484375" height="48"><defs><style type="text/css"></style></defs><path d="M1198.675407 2.321995l-67.802267 67.802268a665.948299 665.948299 0 0 1 0 882.358277l69.659864 69.195465c259.134694-269.815873 258.670295-753.255329 0-1021.678005z m-157.895691 157.895692l-70.588663 70.124263a440.25034 440.25034 0 0 1 0 563.780499l69.659864 69.195465a539.631746 539.631746 0 0 0 0-703.100227z m-776.010885-92.879819L195.573366 2.321995c-260.527891 268.422676-260.99229 751.862132 0 1021.678005l69.659864-69.195465a665.948299 665.948299 0 0 1 0-882.358276z m92.879819 92.879819a537.77415 537.77415 0 0 0 0 702.635828l69.659864-69.195465a439.785941 439.785941 0 0 1 0-563.780499L355.326654 160.217687z m341.797732 128.17415a224.769161 224.769161 0 0 0-161.610884 382.664852 227.091156 227.091156 0 0 0 159.288889 65.480272 224.769161 224.769161 0 1 0 0-449.073922z m0 0" fill="#5d6169" p-id="6823"></path></svg>