<?xml version="1.0" standalone="no"?><!DOCTYPE svg PUBLIC "-//W3C//DTD SVG 1.1//EN" "http://www.w3.org/Graphics/SVG/1.1/DTD/svg11.dtd"><svg t="1581591516029" class="icon" viewBox="0 0 1024 1024" version="1.1" xmlns="http://www.w3.org/2000/svg" p-id="19544" xmlns:xlink="http://www.w3.org/1999/xlink" width="48" height="48"><defs><style type="text/css"></style></defs><path d="M692.958703 365.33547H330.98625c-16.753158 0-30.296397-13.527758-30.296397-30.291237 0-16.754878 13.54324-30.286076 30.296397-30.286076h362.049863c16.754878 0 30.274035 13.531198 30.274034 30.286076 0 16.756598-13.591406 30.291237-30.351444 30.291237M692.958703 545.366118H330.98625c-16.753158 0-30.296397-13.541519-30.296397-30.291237 0-16.765199 13.54324-30.296397 30.296397-30.296397h362.049863c16.754878 0 30.274035 13.531198 30.274034 30.296397 0 16.749717-13.591406 30.291237-30.351444 30.291237M692.958703 725.377844H330.98625c-16.753158 0-30.296397-13.515716-30.296397-30.275755 0-16.777241 13.54324-30.292957 30.296397-30.292957h362.049863c16.754878 0 30.274035 13.510556 30.274034 30.292957 0 16.68779-13.591406 30.275755-30.351444 30.275755" p-id="19545" fill="#5d6169"></path><path d="M830.947337 24.380584h-631.868767c-80.266875 0-145.504246 69.01668-145.504246 153.793954V845.820302c0 84.856404 65.239091 153.802555 145.504246 153.802555h631.868767c80.239352 0 145.585096-69.030441 145.507686-153.802555V542.6413c0-0.123855 0.07741-0.258032 0.07741-0.390488V178.174538c-0.00344-84.851244-65.347465-153.793954-145.585096-153.793954z m84.281853 439.583318V845.823742c0 49.057044-37.839533 89.034802-84.288734 89.034802H199.07341c-46.449201 0-84.287014-39.977758-84.287014-89.034802V178.171097c0-49.060485 37.842973-89.027922 84.287014-89.027921h631.867046c46.449201 0 84.288734 39.963996 84.288734 89.027921v285.792805z" p-id="19546" fill="#5d6169"></path></svg>