<?xml version="1.0" standalone="no"?><!DOCTYPE svg PUBLIC "-//W3C//DTD SVG 1.1//EN" "http://www.w3.org/Graphics/SVG/1.1/DTD/svg11.dtd"><svg t="1581590940001" class="icon" viewBox="0 0 1280 1024" version="1.1" xmlns="http://www.w3.org/2000/svg" p-id="5043" xmlns:xlink="http://www.w3.org/1999/xlink" width="60" height="48"><defs><style type="text/css"></style></defs><path d="M1030.912 471.68A363.712 363.712 0 0 0 716.8 289.536c-31.36 0-61.888 3.968-92.48 11.904a229.952 229.952 0 0 0-176.256-82.304c-126.912 0-231.04 104.448-231.04 233.472 0 63.296 25.024 122.624 68.928 166.144a230.4 230.4 0 0 0-82.304 176.512c0 109.184 78.336 204.16 184.128 224.704V1024h618.048C1156.992 1024 1280 899.776 1280 747.008c-0.768-142.4-108.864-261.888-249.088-275.392z m-597.76 172.48l3.968-28.48A286.08 286.08 0 0 1 531.136 441.6a282.752 282.752 0 0 1 185.6-70.4c86.208 0 168.448 40.32 221.696 107.52-61.056 15.872-115.136 52.288-153.536 103.68a41.792 41.792 0 0 0-7.808 30.08 39.936 39.936 0 0 0 72.064 18.176 191.552 191.552 0 0 1 155.136-79.104c106.496 0 193.472 87.872 193.472 195.456 0 107.648-86.976 195.52-193.472 195.52H429.312c-79.936-0.832-144.192-67.264-144.192-147.2 0-71.232 50.176-132.16 119.872-144.832l28.16-6.336zM297.728 452.672c0-83.904 68.16-152.768 151.168-152.768 35.264 0 68.992 12.672 94.784 34.048a378.24 378.24 0 0 0-65.792 45.888 376.192 376.192 0 0 0-115.904 196.288c-0.768 0-0.768 0-1.6 0.768a153.088 153.088 0 0 1-62.656-124.224z m392.448-205.76h0.832a38.272 38.272 0 0 0 28.16-11.904l50.176-48.256a41.6 41.6 0 0 0 0.768-58.56 40.576 40.576 0 0 0-57.984-0.768l-50.112 48.256a41.6 41.6 0 0 0 28.16 71.232z m-252.16-94.208c10.88 0 21.12-3.904 28.928-11.84a40.832 40.832 0 0 0 11.776-29.312v-70.4A41.152 41.152 0 0 0 437.888 0a41.152 41.152 0 0 0-40.704 41.152v70.4a40.64 40.64 0 0 0 40.704 41.152zM111.168 394.112L42.304 391.68A41.344 41.344 0 0 0 0 432c0 11.072 3.904 21.376 10.944 29.312a40.768 40.768 0 0 0 28.992 12.672l71.296 2.368a40.512 40.512 0 0 0 40.768-40.384c0-22.144-18.048-41.92-40.768-41.92z m113.6-189.184a41.6 41.6 0 0 0-12.544-29.248l-50.112-48.256a40 40 0 0 0-28.992-11.904 40.768 40.768 0 0 0-28.992 12.672 41.6 41.6 0 0 0 0.768 58.56l50.176 48.256a39.552 39.552 0 0 0 28.16 11.904c11.008 0 21.12-3.968 29.76-12.672a40.832 40.832 0 0 0 11.776-29.312z" p-id="5044" fill="#5d6169"></path></svg>