<?xml version="1.0" encoding="utf-8"?>
<!-- Generator: Adobe Illustrator 16.0.0, SVG Export Plug-In . SVG Version: 6.00 Build 0)  -->
<!DOCTYPE svg PUBLIC "-//W3C//DTD SVG 1.1//EN" "http://www.w3.org/Graphics/SVG/1.1/DTD/svg11.dtd">
<svg version="1.1" id="Layer_1" xmlns="http://www.w3.org/2000/svg" xmlns:xlink="http://www.w3.org/1999/xlink" x="0px" y="0px"
	 width="48px" height="48px" viewBox="0 0 48 48" enable-background="new 0 0 48 48" xml:space="preserve">
<path fill="#5D6169" d="M16.758,4.266v15.642c0,0.347,0.136,0.68,0.38,0.923c0.244,0.244,0.576,0.38,0.923,0.38h26.072
	c0.586,0,1.102-0.389,1.256-0.956c0.155-0.567-0.084-1.167-0.586-1.467L18.731,3.146c-0.403-0.239-0.905-0.249-1.312-0.014
	C17.011,3.361,16.758,3.792,16.758,4.266z M39.427,18.604H19.364V6.567L39.427,18.604z M13.13,41.119
	c0.516-0.483,0.553-1.289,0.089-1.814c-0.469-0.529-1.271-0.591-1.814-0.136l-1.861,1.646V6.83l1.861,1.646
	c0.347,0.323,0.844,0.436,1.293,0.286c0.45-0.145,0.788-0.525,0.877-0.994c0.089-0.466-0.081-0.943-0.445-1.247l-3.652-3.23
	c-0.492-0.436-1.233-0.436-1.729,0L4.19,6.445C3.909,6.694,3.75,7.05,3.75,7.42c0,0.511,0.3,0.979,0.769,1.19
	S5.536,8.737,5.92,8.396l1.012-0.9v32.648L5.92,39.244c-0.347-0.31-0.834-0.408-1.275-0.263c-0.441,0.146-0.773,0.521-0.863,0.975
	c-0.094,0.455,0.066,0.929,0.413,1.237l3.558,3.155c0.492,0.436,1.233,0.436,1.73,0L13.13,41.119z M16.81,43.115
	c0,0.469,0.253,0.905,0.661,1.135s0.91,0.225,1.312-0.014l26.077-15.647c0.502-0.3,0.745-0.899,0.586-1.467
	c-0.154-0.567-0.67-0.956-1.256-0.956H18.112c-0.347,0-0.68,0.136-0.923,0.379c-0.244,0.244-0.379,0.577-0.379,0.924V43.115z
	 M19.416,40.814V28.776h20.063L19.416,40.814z"/>
</svg>
