<?xml version="1.0" standalone="no"?><!DOCTYPE svg PUBLIC "-//W3C//DTD SVG 1.1//EN" "http://www.w3.org/Graphics/SVG/1.1/DTD/svg11.dtd"><svg t="1581590804528" class="icon" viewBox="0 0 1024 1024" version="1.1" xmlns="http://www.w3.org/2000/svg" p-id="4517" xmlns:xlink="http://www.w3.org/1999/xlink" width="48" height="48"><defs><style type="text/css"></style></defs><path d="M357.5 91v333.7c0 7.4 2.9 14.5 8.1 19.7 5.2 5.2 12.3 8.1 19.7 8.1h556.2c12.5 0 23.5-8.3 26.8-20.4 3.3-12.1-1.8-24.9-12.5-31.3L399.6 67.1c-8.6-5.1-19.3-5.3-28-0.3-8.7 4.9-14.1 14.1-14.1 24.2z m483.6 305.9h-428V140.1l428 256.8z m-561 480.3c11-10.3 11.8-27.5 1.9-38.7-10-11.3-27.1-12.6-38.7-2.9l-39.7 35.1v-725l39.7 35.1c7.4 6.9 18 9.3 27.6 6.1 9.6-3.1 16.8-11.2 18.7-21.2a27.8 27.8 0 0 0-9.5-26.6l-77.9-68.9c-10.5-9.3-26.3-9.3-36.9 0l-75.9 67.3c-6 5.3-9.4 12.9-9.4 20.8 0 10.9 6.4 20.9 16.4 25.4 10 4.5 21.7 2.7 29.9-4.6l21.6-19.2v696.5l-21.6-19.2c-7.4-6.6-17.8-8.7-27.2-5.6-9.4 3.1-16.5 11.1-18.4 20.8-2 9.7 1.4 19.8 8.8 26.4l75.9 67.3c10.5 9.3 26.3 9.3 36.9 0l77.8-68.9z m78.5 42.6c0 10 5.4 19.3 14.1 24.2 8.7 4.9 19.4 4.8 28-0.3L957 609.9c10.7-6.4 15.9-19.2 12.5-31.3-3.3-12.1-14.3-20.4-26.8-20.4H386.4c-7.4 0-14.5 2.9-19.7 8.1-5.2 5.2-8.1 12.3-8.1 19.7v333.8z m55.6-49.1V613.9h428l-428 256.8z" p-id="4518" fill="#5d6169"></path></svg>