<?xml version="1.0" standalone="no"?><!DOCTYPE svg PUBLIC "-//W3C//DTD SVG 1.1//EN" "http://www.w3.org/Graphics/SVG/1.1/DTD/svg11.dtd"><svg t="1581645520672" class="icon" viewBox="0 0 1024 1024" version="1.1" xmlns="http://www.w3.org/2000/svg" p-id="2812" xmlns:xlink="http://www.w3.org/1999/xlink" width="32" height="32"><defs><style type="text/css"></style></defs><path d="M512 590.667c-140 0-250-110-250-250s109.999-250 250-250 250 110 250 250-109.999 250-250 250z m0-50.001c110 0 200-90 200-200s-90-200-200-200-200 90-200 200 90 200.002 200 200.002z" p-id="2813" fill="#5d6169"></path><path d="M112 940.667c0-220 180-400 400-400s400 180 400 400h-50c0-195-155-350-350-350s-350 155-350 350h-50z" p-id="2814" fill="#5d6169"></path></svg>