<?xml version="1.0" standalone="no"?><!DOCTYPE svg PUBLIC "-//W3C//DTD SVG 1.1//EN" "http://www.w3.org/Graphics/SVG/1.1/DTD/svg11.dtd"><svg t="1581645580319" class="icon" viewBox="0 0 1024 1024" version="1.1" xmlns="http://www.w3.org/2000/svg" p-id="3681" xmlns:xlink="http://www.w3.org/1999/xlink" width="32" height="32"><defs><style type="text/css"></style></defs><path d="M935.083 725.14c0 5.445-7.768 9.86-17.349 9.86H99.266c-9.582 0-17.349-4.415-17.349-9.86v-38.28c0-5.445 7.768-9.86 17.349-9.86h818.468c9.581 0 17.349 4.415 17.349 9.86v38.28z" p-id="3682" fill="#5d6169"></path><path d="M917.734 735.5H99.266c-9.835 0-17.836-4.647-17.836-10.36v-38.28c0-5.713 8.001-10.36 17.836-10.36h818.468c9.834 0 17.836 4.647 17.836 10.36v38.279c0 5.714-8.002 10.361-17.836 10.361z m-818.468-58c-9.298 0-16.862 4.199-16.862 9.36v38.279c0 5.161 7.564 9.36 16.862 9.36h818.468c9.298 0 16.861-4.199 16.861-9.36V686.86c0-5.161-7.563-9.36-16.861-9.36H99.266z m835.817 161.64c0 5.445-7.768 9.86-17.349 9.86H99.266c-9.582 0-17.349-4.415-17.349-9.86v-38.28c0-5.445 7.768-9.86 17.349-9.86h818.468c9.581 0 17.349 4.415 17.349 9.86v38.28z" p-id="3683" fill="#5d6169"></path><path d="M917.734 849.5H99.266c-9.835 0-17.836-4.647-17.836-10.36v-38.28c0-5.713 8.001-10.36 17.836-10.36h818.468c9.834 0 17.836 4.647 17.836 10.36v38.279c0 5.714-8.002 10.361-17.836 10.361z m-818.468-58c-9.298 0-16.862 4.199-16.862 9.36v38.279c0 5.161 7.564 9.36 16.862 9.36h818.468c9.298 0 16.861-4.199 16.861-9.36V800.86c0-5.161-7.563-9.36-16.861-9.36H99.266zM899.09 617H117.91C95.352 617 77 597.667 77 573.903V214.097C77 190.333 95.352 171 117.91 171h781.18c22.559 0 40.91 19.333 40.91 43.097v359.807C940 597.667 921.648 617 899.09 617z m-773.388-50h765.596V221H125.702v346z" p-id="3684" fill="#5d6169"></path><path d="M203 296.5h191.5V488H203z" p-id="3685" fill="#5d6169"></path></svg>