<?xml version="1.0" encoding="utf-8"?>
<!-- Generator: Adobe Illustrator 16.0.0, SVG Export Plug-In . SVG Version: 6.00 Build 0)  -->
<!DOCTYPE svg PUBLIC "-//W3C//DTD SVG 1.1//EN" "http://www.w3.org/Graphics/SVG/1.1/DTD/svg11.dtd">
<svg version="1.1" id="Layer_1" xmlns="http://www.w3.org/2000/svg" xmlns:xlink="http://www.w3.org/1999/xlink" x="0px" y="0px"
	 width="48px" height="48px" viewBox="0 0 48 48" enable-background="new 0 0 48 48" xml:space="preserve">
<path fill="#5D6169" d="M24.102,0.218c-9.747,0-17.635,7.824-17.635,17.491c0,4.776,1.935,9.14,5.082,12.3l12.553,12.337
	l12.515-12.376c3.147-3.158,5.081-7.485,5.081-12.299C41.736,8.042,33.848,0.218,24.102,0.218z"/>
<path fill="#FFFFFF" d="M40.134,17.518c0,8.761-7.161,15.865-15.994,15.865S8.146,26.279,8.146,17.518S15.307,1.654,24.14,1.654
	S40.134,8.757,40.134,17.518z"/>
<path fill="#5D6169" d="M24.12,47.763c-6.354,0-13.203-1.319-13.203-4.212c0-2.031,3.274-3.085,5.981-3.604
	c0.451-0.078,0.881,0.217,0.967,0.662c0.085,0.445-0.205,0.877-0.653,0.969c-3.499,0.652-4.665,1.617-4.665,1.958
	c0,0.757,3.917,2.551,11.513,2.551c7.596,0,11.513-1.78,11.513-2.551c0-0.356-1.226-1.335-4.844-2.002
	c-0.454-0.083-0.755-0.515-0.673-0.964c0.091-0.445,0.52-0.74,0.972-0.668c2.841,0.52,6.22,1.558,6.22,3.634
	C37.307,46.442,30.475,47.763,24.12,47.763z"/>
<path fill="#5D6169" d="M28.645,12.876c0-0.179-0.129-0.41-0.902-0.856c-0.774-0.446-0.793-1.534-0.793-2.372
	c0-0.838-0.719-1.052-0.719-1.052V5.46c0,0,0-0.305-0.461-0.307c-0.446-0.002-0.498,0.339-0.498,0.339v2.783
	c0,0-0.719-0.214-2.322,0s-1.696,1.105-1.696,1.105s0.037,0.803,0,1.445c-0.037,0.642-0.958,1.337-1.364,1.534
	c-0.405,0.196-0.369,0.392-0.369,0.392v6.83c0.004,0.003,0.009,0.006,0.015,0.009v8.07c-0.006,0.02-0.01,0.039-0.01,0.059
	c0,0.021,0.004,0.04,0.01,0.06v0.95c0,0.172,0.254,0.311,0.568,0.311c0.313,0,0.568-0.139,0.568-0.311v-0.387
	c0.709,0.164,1.695,0.275,2.807,0.305v0.895c0,0.172,0.254,0.312,0.568,0.312s0.568-0.14,0.568-0.312v-0.895
	c1.138-0.029,2.143-0.146,2.855-0.316v0.568c0,0.172,0.254,0.312,0.568,0.312s0.568-0.14,0.568-0.312V16.932h-0.006
	C28.621,15.101,28.645,12.977,28.645,12.876z M21.487,13.553c0.182,0,0.329,0.14,0.329,0.312s-0.147,0.312-0.329,0.312
	c-0.182,0-0.33-0.14-0.33-0.312S21.305,13.553,21.487,13.553z M21.487,14.882c0.182,0,0.329,0.14,0.329,0.312
	s-0.147,0.312-0.329,0.312c-0.182,0-0.33-0.14-0.33-0.312S21.305,14.882,21.487,14.882z M21.487,16.21
	c0.182,0,0.329,0.139,0.329,0.312c0,0.172-0.147,0.312-0.329,0.312c-0.182,0-0.33-0.14-0.33-0.312
	C21.158,16.35,21.305,16.21,21.487,16.21z M23.264,24.025c-1.104,0.069-1.907,0.28-1.907,0.531c0,0.037,0.018,0.073,0.052,0.108
	v2.296c-0.269,0.04-0.517,0.087-0.737,0.138v-7.237c0.695,0.121,1.629,0.24,2.592,0.278V24.025L23.264,24.025z M27.471,27.109
	c-0.204-0.05-0.432-0.094-0.68-0.133v-2.421h-0.053c0-0.257-0.85-0.474-2-0.536V23.29h0.838c0.275,0,0.498-0.223,0.498-0.498
	c0-0.275-0.223-0.498-0.498-0.498h-0.838V21.63h0.838c0.275,0,0.498-0.223,0.498-0.498s-0.223-0.498-0.498-0.498h-0.838v-0.51
	c0.984-0.06,1.996-0.208,2.732-0.334V27.109z"/>
</svg>
