<?xml version="1.0" standalone="no"?><!DOCTYPE svg PUBLIC "-//W3C//DTD SVG 1.1//EN" "http://www.w3.org/Graphics/SVG/1.1/DTD/svg11.dtd"><svg t="1581591409258" class="icon" viewBox="0 0 1025 1024" version="1.1" xmlns="http://www.w3.org/2000/svg" p-id="19155" xmlns:xlink="http://www.w3.org/1999/xlink" width="48.046875" height="48"><defs><style type="text/css"></style></defs><path d="M897.28 966.88h-64V619.2a329.92 329.92 0 0 0-659.84 0v347.68h-64V619.2a393.92 393.92 0 0 1 787.84 0z" p-id="19156"></path><path d="M989.28 1014.88H32a32 32 0 0 1 0-64h957.28a32 32 0 0 1 0 64zM531.68 417.12l-145.28 239.2h116.16l-29.12 179.52 145.28-239.36h-116.16l29.12-179.36zM783.52 92.48a32.96 32.96 0 0 1 12 44.8l-59.84 104.16L679.04 208l59.84-104.16a32 32 0 0 1 44.48-12zM503.68 16a34.4 34.4 0 0 1 35.36 32v117.92h-70.88V48a34.24 34.24 0 0 1 35.52-32zM224 92.48a32 32 0 0 1 24.8-3.36 33.44 33.44 0 0 1 19.84 16L328.64 208l-56.48 32.8-60-103.52a32 32 0 0 1 11.84-44.8zM19.2 298.08a32 32 0 0 1 19.84-16 32 32 0 0 1 24.8 3.36l103.68 60.16-32 56.64-104.16-59.52a32 32 0 0 1-12-44.64zM988.32 298.08a32.8 32.8 0 0 1-12 44.8l-103.68 60.16-32-56.8 103.68-60.16a32 32 0 0 1 44.64 12z" p-id="19157"></path></svg>